<?xml version="1.0" encoding="UTF-8"?>
<svg version="1.1" viewBox="0 0 1440 1440" width="360" height="360" xmlns="http://www.w3.org/2000/svg">
<path transform="translate(535,588)" d="m0 0 9 1 14 9 23 12 15 7 27 10 27 7 21 4 15 2 15 1h38l21-2 25-4 28-7 31-11 29-14 14-8 11-7h7l22 5 37 10 44 15 31 13 29 14 24 13 22 14 14 10 17 13 11 9 13 12 19 19 18 22 12 17 14 24 11 23 9 25 7 27 4 26 1 12 1 32v233l-2 2h-125l-1-1-1-233-5-19-9-19-9-12-10-10-14-10-16-7-14-4-9-1-131-1-1-1-1-53-3-11-7-13-9-10-11-7-9-4-7-2-63-1h-213l-26 1-10 3-10 5-10 8-8 10-6 12-2 8-2 54-1 1-130 1-15 2-16 6-11 6-11 9-11 10-9 13-9 19-4 16-1 39v194l-2 2h-125l-1-1v-259l3-30 6-29 7-22 6-16 12-25 9-16 8-12 12-16 13-16 14-14 5-6 8-7 10-9 17-13 15-11 20-13 17-10 25-13 16-8 34-14 25-9 29-9 35-9z"/>
<path transform="translate(705,32)" d="m0 0h28l25 2 28 5 25 7 25 10 23 11 18 11 14 10 14 11 12 11 8 7 11 12 11 13 12 17 13 21 12 24 9 24 7 24 5 26 2 17v49l-2 17-4 22-7 26-11 28-8 17-8 14-12 18-12 16-11 12-7 8-9 9-11 9-12 10-19 13-17 10-27 13-33 11-26 6-20 3-12 1h-40l-20-2-25-5-25-7-21-8-16-7-23-13-15-10-13-10-11-9-16-15-14-15-13-17-11-16-10-17-11-23-9-24-6-21-6-31-2-23v-29l2-23 5-27 8-28 11-28 12-23 12-19 12-16 11-13 4-5h2l2-4 11-11 11-9 12-10 24-16 14-8 25-12 22-8 26-7 32-5z"/>
<path transform="translate(337,1098)" d="m0 0 7 4 10 6 16 7 14 3 17 1 116 1-1 17v30l4 27 7 25 6 15 8 16 8 14 12 16 12 14 8 8 8 7 19 14 18 10 19 9 21 7 19 4 27 3h17l26-3 22-5 20-7 23-11 17-11 12-9 12-11 5-4 7-8 10-12 7-10 9-15 8-16 7-18 6-23 3-20 1-12v-22l-2-18 1-1 115-1 18-1 14-3 12-5 14-8 5-4h2l-1 257-3 12-7 14-9 10-10 8-11 5-12 3-13 1h-637l-13-1-15-5-12-8-10-10-8-14-4-13-1-8z"/>
<path transform="translate(405,895)" d="m0 0h624l19 1 11 2 10 4 13 9 9 10 8 15 3 10v88l-5 15-4 8-9 11-12 9-11 5-12 3-134 1-3-4-9-21-11-20-10-14-9-11-20-20-13-10-17-11-15-8-20-8-24-7-25-4h-39l-25 4-21 6-20 8-19 10-15 10-10 8-10 9-15 15-13 17-8 13-12 23-5 13-1 1h-136l-12-3-15-8-11-10-9-14-5-14-1-8v-75l2-11 4-11 6-10 10-11 10-7 11-5 10-2z"/>
<path transform="translate(702,982)" d="m0 0h35l23 4 20 6 20 9 19 12 10 8 10 9 9 9 11 14 8 13 9 17 7 19 4 16 3 21v26l-4 25-5 17-6 16-9 17-10 14-9 11-9 10-11 9-12 9-13 8-19 9-19 6-25 5-11 1h-16l-30-4-19-6-17-7-15-8-17-12-12-11-12-12-10-13-9-15-8-16-6-17-5-20-2-13v-32l4-24 6-19 8-18 8-15 12-16 9-10 2-3h2l1-3 8-7 18-13 16-9 16-7 19-6z"/>
<path transform="translate(812,793)" d="m0 0h38l17 1 8 5 6 7 2 5v49l-1 1h-325l-1-1v-46l4-10 9-8 4-2z"/>
<path transform="translate(647,1063)" d="m0 0 8 1 8 6 53 53 2 3 4-1 57-57 6-4 7-1 9 3 5 6 2 4v9l-6 9-55 55h-2l1 4 58 58 4 8v8l-4 7-6 5-10 1-8-4-59-59-4 2-58 58-7 3-10-1-6-4-4-7v-9l4-8 59-59-6-7-54-54-4-10 3-10 7-6z" fill="#FEFEFE"/>
</svg>
