<?xml version="1.0" encoding="utf-8"?>
<!-- Generator: Adobe Illustrator 25.4.6, SVG Export Plug-In . SVG Version: 6.00 Build 0)  -->
<svg version="1.1" id="Layer_1" xmlns="http://www.w3.org/2000/svg" xmlns:xlink="http://www.w3.org/1999/xlink" x="0px" y="0px"
	 viewBox="0 0 1009.8 183.1" style="enable-background:new 0 0 1009.8 183.1;" xml:space="preserve">
<style type="text/css">
	.st0{fill:#7F85A5;}
	.st1{fill:url(#SVGID_1_);}
	.st2{fill:url(#SVGID_00000034059562725409408560000016350726495213101216_);}
</style>
<g>
	<g>
		<path class="st0" d="M226.3,33c-0.2,1.3-0.7,2.5-1.6,3.7c-0.8,1.2-1.7,2-2.5,2.6c-1.9-1.4-4.1-2.6-6.6-3.5c-2.5-0.9-5-1.4-7.6-1.4
			c-2.9,0-5.4,0.7-7.7,2.1c-2.3,1.4-4.1,3.6-5.4,6.8c-1.3,3.1-2,7.3-2,12.6c0,7.1,1.3,12.3,3.9,15.6c2.6,3.4,6.6,5.1,11.8,5.1
			c2.8,0,5.4-0.3,7.8-0.9c2.4-0.6,4.2-1.2,5.5-1.7l4.3,6.3c-1.6,0.6-3.4,1.2-5.5,1.7c-2.1,0.5-4.3,0.9-6.7,1.2
			c-2.4,0.3-4.7,0.5-7,0.5c-4.3,0-7.9-0.7-10.8-2.2c-2.9-1.5-5.3-3.5-7.1-6.1c-1.8-2.6-3.1-5.6-3.9-8.9c-0.8-3.3-1.2-6.9-1.2-10.6
			c0-5.1,0.7-9.4,2-13c1.3-3.6,3.1-6.6,5.4-8.9c2.3-2.3,4.8-4,7.6-5.1c2.8-1.1,5.7-1.6,8.7-1.6c3.3,0,6.6,0.5,9.9,1.6
			C221.1,29.8,223.9,31.2,226.3,33z M220.4,53.9c2.2,0,3.8,0.5,4.7,1.5c0.9,1,1.3,2.3,1.3,4v1.8h-14.7c-0.7,0-1.4-0.1-2-0.3
			c-0.7-0.2-1.2-0.5-1.6-1c-0.4-0.5-0.6-1.3-0.6-2.3c0-0.6,0.1-1.2,0.2-1.9c0.1-0.7,0.3-1.2,0.5-1.8L220.4,53.9L220.4,53.9z
			 M218.3,66.3c0-1.9,0-3.6,0.1-5.1c0.1-1.6,0.3-3,0.6-4.2l7.3,2.5v20.7l-8.1,0.2V66.3z"/>
		<path class="st0" d="M279.9,44.2c0,2.5-0.5,4.6-1.4,6.6c-0.9,2-2.1,3.6-3.6,4.9c-1.5,1.3-3.2,2.3-5.2,2.9c1.3,0.5,2.4,1.3,3.3,2.6
			c0.9,1.3,1.7,2.7,2.3,4.2l3.5,9.3c0.6,1.6,1.1,2.8,1.7,3.6c0.5,0.9,1.2,1.6,1.9,2.1c-0.6,0.8-1.4,1.5-2.5,1.9
			c-1.1,0.5-2.2,0.7-3.2,0.7c-1.6,0-2.8-0.4-3.5-1.3c-0.7-0.9-1.4-2.2-2.1-3.9l-4-10.7c-0.7-1.8-1.6-3.3-2.7-4.6
			c-1.1-1.2-2.9-1.9-5.4-1.9h-9.9V54c1.2-0.1,2.5-0.1,4-0.1c1.5,0,3-0.1,4.5-0.1c1.5,0,2.7,0,3.7,0c2.6,0,4.6-0.5,6-1.4
			c1.4-1,2.4-2.2,2.9-3.6c0.5-1.5,0.8-3,0.8-4.5c0-1.6-0.3-3.1-0.8-4.6c-0.5-1.5-1.5-2.7-2.9-3.6c-1.4-0.9-3.4-1.4-6-1.4
			c-0.8,0-1.7,0-2.7,0c-1,0-2.1,0-3.1,0c-1.1,0-2.1,0-2.9-0.1v48.1c-0.7,0.1-1.4,0.2-2.1,0.2c-0.8,0.1-1.5,0.1-2.1,0.1
			c-0.6,0-1.3,0-2.1-0.1c-0.8-0.1-1.5-0.1-2.1-0.2V28.7l0.5-0.5c3-0.1,5.9-0.1,8.8-0.2c2.9-0.1,5.6-0.1,8.4-0.1
			c3.7,0,6.9,0.6,9.6,1.9s4.8,3.1,6.3,5.5C279.2,37.7,279.9,40.7,279.9,44.2z"/>
		<path class="st0" d="M309.9,28.2c0.7-0.1,1.5-0.2,2.4-0.2c1-0.1,1.8-0.1,2.5-0.1c0.7,0,1.5,0,2.4,0.1c1,0.1,1.7,0.1,2.3,0.3
			L337.4,82c-0.6,0.4-1.4,0.6-2.3,0.8c-0.9,0.2-1.8,0.3-2.7,0.3c-1.4,0-2.4-0.3-3.1-0.9c-0.7-0.6-1.4-1.8-1.9-3.6l-8.8-27.6
			c-0.7-2.3-1.5-4.8-2.3-7.4c-0.8-2.6-1.4-4.9-2-7h-0.4c-0.3,1.2-0.6,2.5-1,3.9c-0.4,1.4-0.8,2.8-1.1,4.1c-0.4,1.3-0.7,2.5-1,3.4
			l-11,34.6c-0.5,0.1-1.1,0.2-1.8,0.2c-0.6,0.1-1.3,0.1-1.9,0.1c-0.7,0-1.5-0.1-2.2-0.2c-0.7-0.1-1.4-0.2-2-0.4l-0.2-0.4L309.9,28.2
			z M308.8,69.4c-0.2,0-0.7,0-1.5,0c-0.8,0-1.5,0-2.3,0c-0.8,0-1.3,0-1.5,0h-3.9l2.6-6.9h3.4c0.3,0,0.7,0,1.4,0c0.7,0,1.3,0,2,0
			c0.7,0,1.1,0,1.4,0h7.9c0.2,0,0.7,0,1.4,0c0.7,0,1.4,0,2.1,0c0.7,0,1.2,0,1.4,0h3.6l2.3,6.9H325c-0.3,0-0.8,0-1.6,0
			c-0.8,0-1.6,0-2.3,0c-0.8,0-1.3,0-1.5,0H308.8z"/>
		<path class="st0" d="M351.7,28.3c0.7-0.1,1.5-0.2,2.6-0.3c1-0.1,1.9-0.1,2.5-0.1s1.5,0,2.4,0.1c0.9,0.1,1.8,0.1,2.7,0.2l-2.2,9.9
			l-0.6,0.1c0.1,1.9,0.2,3.9,0.3,6.2c0.1,2.3,0.2,4.6,0.2,6.9c0.1,2.3,0.1,4.5,0.1,6.4v24.9c-0.7,0.1-1.4,0.2-2.1,0.2
			c-0.7,0.1-1.3,0.1-1.8,0.1c-0.5,0-1.2,0-1.9-0.1c-0.7-0.1-1.4-0.1-2.1-0.2L351.7,28.3L351.7,28.3z M364.3,49.2
			c-1-2-1.9-3.9-2.7-5.7c-0.9-1.9-1.7-3.6-2.4-5.3l-4-4.8l6.6-5.1l16.8,33.3c1,2.1,2,4.1,2.9,6.1c0.9,2,1.7,3.8,2.5,5.4l4.2,4.4
			l-6.9,5.1L364.3,49.2z M391.4,28.3v54.1c-0.7,0.1-1.5,0.2-2.5,0.3c-1,0.1-1.9,0.1-2.6,0.1c-0.8,0-1.6,0-2.5-0.1
			c-0.9-0.1-1.7-0.1-2.6-0.2l2.3-9.5l0.7-0.1c-0.1-2.1-0.2-4.4-0.3-6.8c-0.1-2.4-0.2-4.7-0.2-7.1c-0.1-2.3-0.1-4.4-0.1-6.2V33.1
			c0-1.9,0.3-3.2,1-4c0.7-0.8,1.8-1.2,3.5-1.2h2.8L391.4,28.3z"/>
		<path class="st0" d="M405.6,35.4c-0.1-0.6-0.2-1.2-0.3-1.9c-0.1-0.6-0.1-1.2-0.1-1.7c0-0.5,0-1.1,0.1-1.7c0.1-0.6,0.1-1.2,0.3-1.9
			h36.6c0.2,0.5,0.3,1,0.4,1.6c0.1,0.6,0.1,1.2,0.1,1.7c0,1.4-0.4,2.4-1.2,2.9c-0.8,0.6-2,0.9-3.6,0.9h-5.2c-0.5,0-1.3,0-2.3,0
			s-1.8,0-2.3,0h-8.5c-0.6,0-1.3,0-2.3,0s-1.7,0-2.3,0H405.6z M419.6,41.2c0-1.1,0-2.1,0-2.9c0-0.9,0-1.9,0-2.9v-3.5h8.4v3.5
			c0,1.1,0,2.1,0,2.9c0,0.9,0,1.8,0,2.9v41.4c-0.7,0.1-1.4,0.2-2.2,0.2c-0.8,0.1-1.5,0.1-2.1,0.1c-0.7,0-1.4,0-2.1-0.1
			c-0.8-0.1-1.5-0.1-2.1-0.2L419.6,41.2L419.6,41.2z"/>
		<path class="st0" d="M451.3,77.6c0.1-1.2,0.5-2.4,1.2-3.6c0.7-1.2,1.5-2.2,2.4-2.9c2.3,1.5,4.9,2.8,7.7,3.8c2.8,1,5.6,1.6,8.4,1.6
			c3.2,0,5.7-0.7,7.4-2.1c1.8-1.4,2.7-3.2,2.7-5.4c0-1.9-0.6-3.5-1.9-5c-1.3-1.4-3-2.7-5.4-3.6l-9.6-4c-3.3-1.4-6-3.2-8-5.4
			s-2.9-5-2.9-8.4c0-2.9,0.8-5.5,2.3-7.8c1.5-2.3,3.6-4.2,6.3-5.5s5.8-2,9.4-2c3.3,0,6.4,0.4,9.3,1.3c2.9,0.9,5.4,1.8,7.5,2.8
			c-0.1,1.2-0.4,2.4-0.9,3.6c-0.5,1.2-1.3,2.2-2.2,3c-2.1-1-4.3-1.9-6.8-2.7c-2.5-0.7-4.7-1.1-6.8-1.1c-2.9,0-5.3,0.7-6.9,2.2
			c-1.7,1.5-2.5,3.2-2.5,5.3c0,1.8,0.6,3.2,1.8,4.3c1.2,1.1,2.8,2.1,4.8,2.9l9.5,3.9c2.3,1,4.3,2.1,6.1,3.5c1.8,1.4,3.2,3,4.2,4.9
			c1,1.9,1.6,4,1.6,6.4c0,3-0.7,5.7-2.2,8.2s-3.6,4.3-6.5,5.7c-2.9,1.4-6.5,2.1-10.9,2.1c-3.3,0-6.6-0.5-10-1.6
			C457,80.9,454,79.5,451.3,77.6z"/>
		<path class="st0" d="M541.3,28.2c0.7-0.1,1.5-0.2,2.4-0.2c1-0.1,1.8-0.1,2.5-0.1c0.7,0,1.5,0,2.4,0.1c1,0.1,1.7,0.1,2.3,0.3
			L568.8,82c-0.6,0.4-1.4,0.6-2.3,0.8c-0.9,0.2-1.8,0.3-2.7,0.3c-1.4,0-2.4-0.3-3.1-0.9c-0.7-0.6-1.4-1.8-1.9-3.6l-8.8-27.6
			c-0.7-2.3-1.5-4.8-2.3-7.4c-0.8-2.6-1.4-4.9-2-7h-0.4c-0.3,1.2-0.6,2.5-1,3.9c-0.4,1.4-0.8,2.8-1.1,4.1c-0.4,1.3-0.7,2.5-1,3.4
			l-11,34.6c-0.5,0.1-1.1,0.2-1.8,0.2c-0.6,0.1-1.3,0.1-1.9,0.1c-0.7,0-1.5-0.1-2.2-0.2c-0.7-0.1-1.4-0.2-2-0.4l-0.3-0.4L541.3,28.2
			z M540.2,69.4c-0.2,0-0.7,0-1.5,0c-0.8,0-1.5,0-2.3,0c-0.8,0-1.3,0-1.5,0h-3.9l2.6-6.9h3.4c0.3,0,0.7,0,1.4,0c0.7,0,1.3,0,2,0
			c0.7,0,1.1,0,1.4,0h7.9c0.2,0,0.7,0,1.4,0c0.7,0,1.4,0,2.1,0c0.7,0,1.2,0,1.4,0h3.6l2.3,6.9h-3.9c-0.3,0-0.8,0-1.6,0
			c-0.8,0-1.6,0-2.3,0s-1.3,0-1.5,0H540.2z"/>
		<path class="st0" d="M578.3,77.6c0.1-1.2,0.5-2.4,1.2-3.6c0.7-1.2,1.5-2.2,2.4-2.9c2.3,1.5,4.9,2.8,7.7,3.8c2.8,1,5.6,1.6,8.4,1.6
			c3.2,0,5.7-0.7,7.4-2.1c1.8-1.4,2.7-3.2,2.7-5.4c0-1.9-0.6-3.5-1.9-5c-1.3-1.4-3-2.7-5.4-3.6l-9.6-4c-3.3-1.4-6-3.2-8-5.4
			s-2.9-5-2.9-8.4c0-2.9,0.8-5.5,2.3-7.8c1.5-2.3,3.6-4.2,6.3-5.5c2.7-1.4,5.8-2,9.4-2c3.3,0,6.4,0.4,9.3,1.3
			c2.9,0.9,5.4,1.8,7.5,2.8c-0.1,1.2-0.4,2.4-0.9,3.6c-0.5,1.2-1.3,2.2-2.2,3c-2.1-1-4.3-1.9-6.8-2.7s-4.7-1.1-6.8-1.1
			c-2.9,0-5.3,0.7-6.9,2.2c-1.7,1.5-2.5,3.2-2.5,5.3c0,1.8,0.6,3.2,1.8,4.3c1.2,1.1,2.8,2.1,4.8,2.9l9.5,3.9c2.3,1,4.3,2.1,6.1,3.5
			c1.8,1.4,3.2,3,4.2,4.9s1.6,4,1.6,6.4c0,3-0.7,5.7-2.2,8.2c-1.4,2.4-3.6,4.3-6.5,5.7c-2.9,1.4-6.5,2.1-10.9,2.1
			c-3.3,0-6.6-0.5-10-1.6C584,80.9,581,79.5,578.3,77.6z"/>
		<path class="st0" d="M628.1,77.6c0.1-1.2,0.5-2.4,1.2-3.6c0.7-1.2,1.5-2.2,2.4-2.9c2.3,1.5,4.9,2.8,7.7,3.8c2.8,1,5.6,1.6,8.4,1.6
			c3.2,0,5.7-0.7,7.4-2.1c1.8-1.4,2.7-3.2,2.7-5.4c0-1.9-0.6-3.5-1.9-5c-1.3-1.4-3-2.7-5.4-3.6l-9.6-4c-3.3-1.4-6-3.2-8-5.4
			s-2.9-5-2.9-8.4c0-2.9,0.8-5.5,2.3-7.8c1.5-2.3,3.6-4.2,6.3-5.5c2.7-1.4,5.8-2,9.4-2c3.3,0,6.4,0.4,9.3,1.3
			c2.9,0.9,5.4,1.8,7.5,2.8c-0.1,1.2-0.4,2.4-0.9,3.6c-0.5,1.2-1.3,2.2-2.2,3c-2.1-1-4.3-1.9-6.8-2.7c-2.5-0.7-4.7-1.1-6.8-1.1
			c-2.9,0-5.3,0.7-6.9,2.2c-1.7,1.5-2.5,3.2-2.5,5.3c0,1.8,0.6,3.2,1.8,4.3s2.8,2.1,4.8,2.9l9.5,3.9c2.3,1,4.3,2.1,6.1,3.5
			s3.2,3,4.2,4.9c1,1.9,1.6,4,1.6,6.4c0,3-0.7,5.7-2.2,8.2c-1.4,2.4-3.6,4.3-6.5,5.7c-2.9,1.4-6.5,2.1-10.9,2.1
			c-3.3,0-6.6-0.5-10-1.6C633.8,80.9,630.7,79.5,628.1,77.6z"/>
		<path class="st0" d="M682.9,28.2c0.6-0.1,1.3-0.2,2.1-0.2c0.8-0.1,1.5-0.1,2.1-0.1c0.7,0,1.4,0,2.2,0.1c0.8,0.1,1.5,0.1,2.1,0.2
			v54.3c-0.7,0.1-1.4,0.2-2.1,0.2c-0.8,0.1-1.5,0.1-2.2,0.1c-0.6,0-1.3,0-2.1-0.1c-0.8-0.1-1.5-0.1-2.1-0.2V28.2z"/>
		<path class="st0" d="M706.8,77.6c0.1-1.2,0.5-2.4,1.2-3.6c0.7-1.2,1.5-2.2,2.4-2.9c2.3,1.5,4.9,2.8,7.7,3.8c2.8,1,5.6,1.6,8.4,1.6
			c3.2,0,5.7-0.7,7.4-2.1c1.8-1.4,2.7-3.2,2.7-5.4c0-1.9-0.6-3.5-1.9-5c-1.3-1.4-3-2.7-5.4-3.6l-9.6-4c-3.3-1.4-6-3.2-8-5.4
			s-2.9-5-2.9-8.4c0-2.9,0.8-5.5,2.3-7.8c1.5-2.3,3.6-4.2,6.3-5.5c2.7-1.4,5.8-2,9.4-2c3.3,0,6.4,0.4,9.3,1.3
			c2.9,0.9,5.4,1.8,7.5,2.8c-0.1,1.2-0.4,2.4-0.9,3.6c-0.5,1.2-1.3,2.2-2.2,3c-2.1-1-4.3-1.9-6.8-2.7s-4.7-1.1-6.8-1.1
			c-2.9,0-5.3,0.7-6.9,2.2c-1.7,1.5-2.5,3.2-2.5,5.3c0,1.8,0.6,3.2,1.8,4.3c1.2,1.1,2.8,2.1,4.8,2.9l9.5,3.9c2.3,1,4.3,2.1,6.1,3.5
			c1.8,1.4,3.2,3,4.2,4.9s1.6,4,1.6,6.4c0,3-0.7,5.7-2.2,8.2c-1.4,2.4-3.6,4.3-6.5,5.7c-2.9,1.4-6.5,2.1-10.9,2.1
			c-3.3,0-6.6-0.5-10-1.6C712.5,80.9,709.5,79.5,706.8,77.6z"/>
		<path class="st0" d="M753.5,35.4c-0.1-0.6-0.2-1.2-0.3-1.9c-0.1-0.6-0.1-1.2-0.1-1.7c0-0.5,0-1.1,0.1-1.7c0.1-0.6,0.1-1.2,0.3-1.9
			H790c0.2,0.5,0.3,1,0.4,1.6c0.1,0.6,0.1,1.2,0.1,1.7c0,1.4-0.4,2.4-1.2,2.9s-2,0.9-3.6,0.9h-5.2c-0.5,0-1.3,0-2.3,0
			c-1,0-1.8,0-2.3,0h-8.5c-0.6,0-1.3,0-2.3,0c-1,0-1.7,0-2.3,0H753.5z M767.5,41.2c0-1.1,0-2.1,0-2.9c0-0.9,0-1.9,0-2.9v-3.5h8.4
			v3.5c0,1.1,0,2.1,0,2.9c0,0.9,0,1.8,0,2.9v41.4c-0.7,0.1-1.4,0.2-2.2,0.2c-0.8,0.1-1.5,0.1-2.1,0.1c-0.7,0-1.4,0-2.1-0.1
			c-0.8-0.1-1.5-0.1-2.1-0.2L767.5,41.2L767.5,41.2z"/>
		<path class="st0" d="M811.4,28.2c0.7-0.1,1.5-0.2,2.4-0.2c1-0.1,1.8-0.1,2.5-0.1c0.7,0,1.5,0,2.4,0.1c1,0.1,1.7,0.1,2.3,0.3
			L839,82c-0.6,0.4-1.4,0.6-2.3,0.8c-0.9,0.2-1.8,0.3-2.7,0.3c-1.4,0-2.4-0.3-3.1-0.9c-0.7-0.6-1.4-1.8-1.9-3.6l-8.8-27.6
			c-0.7-2.3-1.5-4.8-2.3-7.4c-0.8-2.6-1.4-4.9-2-7h-0.4c-0.3,1.2-0.6,2.5-1,3.9c-0.4,1.4-0.8,2.8-1.1,4.1c-0.4,1.3-0.7,2.5-1,3.4
			l-11,34.6c-0.5,0.1-1.1,0.2-1.8,0.2c-0.6,0.1-1.3,0.1-1.9,0.1c-0.7,0-1.5-0.1-2.2-0.2c-0.7-0.1-1.4-0.2-2-0.4l-0.2-0.4L811.4,28.2
			z M810.3,69.4c-0.2,0-0.7,0-1.5,0c-0.8,0-1.5,0-2.3,0c-0.8,0-1.3,0-1.5,0h-3.9l2.6-6.9h3.4c0.3,0,0.7,0,1.4,0c0.7,0,1.3,0,2,0
			c0.7,0,1.1,0,1.4,0h7.9c0.2,0,0.7,0,1.4,0c0.7,0,1.4,0,2.1,0c0.7,0,1.2,0,1.4,0h3.6l2.3,6.9h-3.9c-0.3,0-0.8,0-1.6,0
			c-0.8,0-1.6,0-2.3,0s-1.3,0-1.5,0H810.3z"/>
		<path class="st0" d="M853.3,28.3c0.7-0.1,1.5-0.2,2.6-0.3c1-0.1,1.9-0.1,2.5-0.1c0.7,0,1.5,0,2.4,0.1c0.9,0.1,1.8,0.1,2.7,0.2
			l-2.2,9.9l-0.6,0.1c0.1,1.9,0.2,3.9,0.3,6.2c0.1,2.3,0.2,4.6,0.2,6.9c0.1,2.3,0.1,4.5,0.1,6.4v24.9c-0.7,0.1-1.4,0.2-2.1,0.2
			c-0.7,0.1-1.3,0.1-1.8,0.1c-0.5,0-1.2,0-1.9-0.1c-0.7-0.1-1.4-0.1-2.1-0.2L853.3,28.3L853.3,28.3z M865.8,49.2
			c-1-2-1.9-3.9-2.7-5.7s-1.7-3.6-2.4-5.3l-4-4.8l6.6-5.1l16.8,33.3c1,2.1,2,4.1,2.9,6.1c0.9,2,1.7,3.8,2.5,5.4l4.2,4.4l-6.9,5.1
			L865.8,49.2z M893,28.3v54.1c-0.7,0.1-1.5,0.2-2.5,0.3c-1,0.1-1.9,0.1-2.6,0.1c-0.8,0-1.6,0-2.5-0.1c-0.9-0.1-1.7-0.1-2.6-0.2
			l2.3-9.5l0.7-0.1c-0.1-2.1-0.2-4.4-0.3-6.8c-0.1-2.4-0.2-4.7-0.2-7.1c-0.1-2.3-0.1-4.4-0.1-6.2V33.1c0-1.9,0.3-3.2,1-4
			c0.7-0.8,1.8-1.2,3.5-1.2h2.8L893,28.3z"/>
		<path class="st0" d="M942.4,47c0-2-0.3-4-1-6c-0.7-2-1.8-3.6-3.4-5c-1.6-1.3-3.8-2-6.7-2c-4.2,0-7.4,1.8-9.5,5.5
			c-2.1,3.6-3.2,9-3.2,16.1c0,6.6,1.2,11.6,3.5,15.2c2.3,3.5,5.6,5.3,9.7,5.3c2.5,0,4.9-0.5,7.2-1.6c2.4-1.1,4.7-2.6,7-4.5
			c0.9,0.6,1.8,1.4,2.6,2.5s1.4,2.1,1.6,3c-1.5,1.5-3.2,2.8-5.3,4c-2.1,1.2-4.3,2.2-6.8,2.9c-2.5,0.7-5.1,1.1-7.8,1.1
			c-3.8,0-7-0.8-9.6-2.4c-2.7-1.6-4.8-3.7-6.4-6.3c-1.6-2.7-2.8-5.7-3.5-9c-0.7-3.3-1.1-6.8-1.1-10.3c0-6.6,1-12,3-16.2
			c2-4.2,4.6-7.3,8-9.3c3.3-2,6.9-3,10.8-3s7.3,0.7,10.2,2.2c2.9,1.5,5.1,3.4,6.6,5.7c1.6,2.4,2.4,4.9,2.4,7.6
			c0,1.4-0.4,2.6-1.1,3.5c-0.7,0.9-2,1.3-3.7,1.3c-0.6,0-1.2,0-1.7-0.1C943.6,47.3,943,47.2,942.4,47z"/>
		<path class="st0" d="M966.5,28.7l0.5-0.5h7.8v7c0,1.1,0,2,0,2.7c0,0.7,0,1.6,0,2.7v31c0,0.7,0,1.4,0,2c0,0.6,0,1.3,0,2v7h-3.4
			c-1.5,0-2.7-0.5-3.5-1.4c-0.9-0.9-1.3-2.2-1.3-3.8V28.7z M999,28.2c0.1,0.6,0.2,1.2,0.2,1.8c0,0.6,0,1.1,0,1.6s-0.1,1.1-0.2,1.8
			s-0.3,1.4-0.5,2h-18.9c-0.6,0-1.4,0-2.3,0s-1.9,0-2.9,0c-1,0-1.9,0-2.7-0.1v-7.1L999,28.2L999,28.2z M994.7,51.6
			c0.1,0.6,0.2,1.2,0.3,1.8c0.1,0.7,0.1,1.2,0.1,1.7c0,0.5,0,1-0.1,1.7c-0.1,0.7-0.2,1.3-0.3,1.9h-14.9c-0.6,0-1.4,0-2.3,0
			s-1.9,0-2.9,0c-1,0-1.9,0-2.7-0.1v-6.8c0.8,0,1.7,0,2.7,0c1,0,2,0,2.9,0s1.7,0,2.3,0L994.7,51.6L994.7,51.6z M1000.6,75.4
			c0,2.6-0.4,4.4-1.2,5.5c-0.8,1.1-2.3,1.7-4.4,1.7h-23.1v-6.8c1.3-0.1,2.5-0.2,3.8-0.2s2.7-0.1,4.3-0.1
			C980,75.4,1000.6,75.4,1000.6,75.4z"/>
	</g>
	<g>
		
			<linearGradient id="SVGID_1_" gradientUnits="userSpaceOnUse" x1="46.7505" y1="-97.8123" x2="46.7505" y2="36.6893" gradientTransform="matrix(1 0 0 -1 0 57.8898)">
			<stop  offset="2.422030e-07" style="stop-color:#008FB9"/>
			<stop  offset="1" style="stop-color:#00AAA9"/>
		</linearGradient>
		<path class="st1" d="M48.7,85.8L48.7,85.8l-2.4,0.1c-0.6,0-0.9,0.3-0.9,0.9v21c0,0.6,0.3,0.9,0.9,0.9h13.1v9.2
			c0,4.2-1.4,7.8-4,10.7c-2.7,2.9-6,4.3-10,4.3c-3.7,0-7-1.5-9.7-4.4s-4.1-6.5-4.1-10.6V58.6c0-4,1.4-7.5,4.2-10.5s6-4.5,9.6-4.5
			c4,0,7.3,1.6,10,4.7c2.7,3.1,4,7.1,4,11.8v7.1c0,0.5,0.3,0.8,0.8,0.8h21c0.6,0,0.9-0.2,0.9-0.8v-8.6c0-7-1.6-13.3-4.9-18.9
			C74,34,69.6,29.5,64,26.2c-5.6-3.3-11.8-5-18.7-5c-6.6,0-12.7,1.7-18.3,5.1s-10,7.9-13.3,13.6c-3.3,5.7-5,11.9-5,18.7V118
			c0,7,1.7,13.4,5,19c3.3,5.7,7.7,10.2,13.2,13.6c5.6,3.4,11.7,5.1,18.4,5.1c6.9,0,13.1-1.7,18.6-5.1c4.3-2.7,8-6.1,10.9-10.2
			l9.9-54.7L48.7,85.8L48.7,85.8z"/>
		
			<linearGradient id="SVGID_00000066480751251537771200000015193885583165787032_" gradientUnits="userSpaceOnUse" x1="113.3827" y1="-95.9562" x2="113.3827" y2="34.6012" gradientTransform="matrix(1 0 0 -1 0 57.8898)">
			<stop  offset="2.422030e-07" style="stop-color:#008FB9"/>
			<stop  offset="1" style="stop-color:#00AAA9"/>
		</linearGradient>
		<path style="fill:url(#SVGID_00000066480751251537771200000015193885583165787032_);" d="M128.3,24.1c-0.1-0.5-0.4-0.8-0.9-0.8
			h-27.2c-0.5,0-0.8,0.3-0.9,0.8l-17.2,95.4l0,0l-1.3,7L76,152.9c0,0.6,0.3,0.9,0.8,0.9h20.8c0.5,0,0.8-0.3,0.9-0.9l2.1-13.7
			l2.8-14.7l-0.2,0l6.9-40.9l2.8-17.2l0.8-6.9l1.1,6.9l2.8,19.4h-4.4l-3.8,22.7h11.6l1.6,10.6l3.7,20.1l2.1,13.7
			c0.1,0.6,0.4,0.9,0.9,0.9h20.8c0.6,0,0.9-0.3,0.8-0.9L128.3,24.1z"/>
	</g>
</g>
<g>
	<path class="st0" d="M204.1,122.3c0.7-0.1,1.6-0.2,2.6-0.4c1-0.2,1.9-0.4,2.5-0.7c0.6-0.3,1-0.8,1.2-1.5c0.2-0.7,0.2-1.4,0.2-2
		c0-2-0.6-3.6-1.9-4.9c-1.3-1.3-3.4-1.9-6.5-1.9c-1.3,0-2.6,0.1-3.7,0.4c-1.1,0.2-2.1,0.6-3,1.2s-1.5,1.4-2.1,2.3
		c-0.5,1-0.9,2.2-1.1,3.7h-4c0.1-2,0.6-3.7,1.4-5.1c0.8-1.4,1.8-2.6,3-3.4c1.2-0.9,2.7-1.5,4.3-1.9c1.6-0.4,3.3-0.6,5.2-0.6
		c1.7,0,3.3,0.2,4.8,0.6c1.5,0.4,2.8,1,3.9,1.8c1.1,0.8,2,1.9,2.6,3.2c0.6,1.3,0.9,3,0.9,4.9v18.3c0,1.5,0.3,2.5,0.8,2.9
		c0.5,0.4,1.6,0.3,3.3-0.3v3.1c-0.3,0.1-0.7,0.2-1.3,0.4c-0.6,0.2-1.2,0.3-1.7,0.3c-0.6,0-1.2-0.1-1.8-0.2c-0.6-0.1-1.2-0.3-1.6-0.6
		c-0.4-0.3-0.7-0.7-0.9-1.2c-0.2-0.5-0.4-1-0.5-1.5c-0.1-0.5-0.1-1.1-0.1-1.7c-1.6,1.8-3.5,3.2-5.6,4.2c-2.1,1-4.4,1.4-6.9,1.4
		c-1.5,0-2.9-0.2-4.3-0.6c-1.4-0.4-2.6-1-3.6-1.8c-1-0.8-1.9-1.8-2.5-3c-0.6-1.2-0.9-2.6-0.9-4.3c0-5.7,3.9-9.1,11.8-10.1
		L204.1,122.3z M210.7,124.3c-1.6,0.7-3.3,1.1-5,1.4c-1.7,0.2-3.4,0.4-5.1,0.5c-3,0.2-5.3,0.9-7,2c-1.7,1.1-2.5,2.8-2.5,5.1
		c0,1,0.2,1.9,0.6,2.7c0.4,0.8,1,1.4,1.6,1.9c0.7,0.5,1.4,0.9,2.3,1.1c0.9,0.2,1.8,0.4,2.7,0.4c1.6,0,3.1-0.2,4.5-0.6
		c1.5-0.4,2.8-1,3.9-1.8c1.1-0.8,2.1-1.8,2.8-3.1c0.7-1.2,1-2.7,1-4.4V124.3z"/>
	<path class="st0" d="M246.7,141.9h-3.9v-33.6h3.9v4.7c1.6-1.6,3.2-3,4.8-4c1.7-1,3.7-1.6,6-1.6c2.1,0,4,0.4,5.8,1.1
		c1.8,0.7,3.3,2,4.5,3.7c0.8,1.2,1.3,2.5,1.5,3.7c0.2,1.3,0.2,2.6,0.2,4v22h-3.9V120c0-3-0.7-5.3-2-6.8c-1.3-1.5-3.6-2.3-6.7-2.3
		c-1.2,0-2.3,0.2-3.3,0.6c-1,0.4-1.9,0.9-2.7,1.5c-0.8,0.6-1.5,1.3-2,2.1c-0.6,0.8-1,1.6-1.3,2.5c-0.4,1.1-0.6,2.1-0.7,3.1
		c-0.1,1-0.1,2.1-0.1,3.2V141.9z"/>
	<path class="st0" d="M292.3,142.8c-2.2,0-4.2-0.4-6.1-1.2c-1.9-0.7-3.5-1.8-4.9-3.3c-1.4-1.5-2.5-3.3-3.3-5.5
		c-0.8-2.2-1.2-4.8-1.2-7.7c0-2.5,0.3-4.8,1-6.9c0.6-2.1,1.6-4,2.9-5.6c1.3-1.6,2.9-2.9,4.9-3.8c1.9-0.9,4.2-1.4,6.8-1.4
		c2.6,0,4.9,0.5,6.9,1.4c1.9,0.9,3.6,2.2,4.9,3.8c1.3,1.6,2.3,3.5,2.9,5.6s0.9,4.5,0.9,6.9c0,2.7-0.4,5.1-1.1,7.3
		c-0.7,2.2-1.8,4-3.1,5.6c-1.4,1.6-3,2.8-4.9,3.6C296.7,142.4,294.6,142.8,292.3,142.8z M303.7,125.1c0-2-0.2-3.9-0.6-5.6
		c-0.4-1.7-1.1-3.2-2-4.5c-0.9-1.3-2.1-2.3-3.5-3c-1.4-0.7-3.2-1.1-5.3-1.1c-2,0-3.8,0.4-5.2,1.2c-1.5,0.8-2.6,1.9-3.5,3.2
		c-0.9,1.3-1.6,2.8-2,4.5c-0.4,1.7-0.6,3.5-0.6,5.3c0,2.1,0.2,4,0.7,5.7c0.5,1.8,1.2,3.3,2.2,4.5c1,1.3,2.1,2.2,3.6,2.9
		c1.4,0.7,3.1,1,4.9,1c2,0,3.8-0.4,5.2-1.2c1.4-0.8,2.6-1.9,3.5-3.2c0.9-1.3,1.6-2.9,2-4.5C303.5,128.7,303.7,126.9,303.7,125.1z"/>
	<path class="st0" d="M318.9,141.9H315v-33.6h3.9v4.7c1.6-1.6,3.2-3,4.8-4c1.7-1,3.7-1.6,6-1.6c2.1,0,4,0.4,5.8,1.1
		c1.8,0.7,3.3,2,4.5,3.7c0.8,1.2,1.3,2.5,1.5,3.7c0.2,1.3,0.2,2.6,0.2,4v22h-3.9V120c0-3-0.7-5.3-2-6.8c-1.3-1.5-3.6-2.3-6.7-2.3
		c-1.2,0-2.3,0.2-3.3,0.6c-1,0.4-1.9,0.9-2.7,1.5c-0.8,0.6-1.5,1.3-2,2.1c-0.6,0.8-1,1.6-1.3,2.5c-0.4,1.1-0.6,2.1-0.7,3.1
		c-0.1,1-0.1,2.1-0.1,3.2V141.9z"/>
	<path class="st0" d="M365.4,123v4H349v-4H365.4z"/>
	<path class="st0" d="M398.7,108.3h3.9v30.4c0,2.3-0.2,4.4-0.7,6.5c-0.5,2.1-1.3,3.9-2.4,5.4c-1.2,1.6-2.8,2.8-4.8,3.7
		c-2,0.9-4.7,1.4-7.9,1.4c-2.5,0-4.6-0.3-6.4-0.9c-1.8-0.6-3.2-1.4-4.4-2.4c-1.1-1-2-2-2.6-3.1c-0.6-1.1-0.9-2.2-0.9-3.2h4.2
		c0.3,1.3,0.8,2.3,1.4,3.1c0.6,0.8,1.4,1.4,2.3,1.9c0.9,0.5,1.9,0.8,3,0.9c1.1,0.2,2.2,0.3,3.4,0.3c2.6,0,4.8-0.5,6.4-1.4
		c1.6-0.9,2.8-2.1,3.6-3.6c0.8-1.5,1.4-3.1,1.6-5c0.2-1.9,0.3-3.8,0.3-5.7c-1.3,2.1-3,3.6-5.2,4.7c-2.2,1.1-4.5,1.6-6.8,1.6
		c-2.6,0-4.8-0.5-6.7-1.5c-1.9-1-3.4-2.3-4.7-3.9c-1.2-1.6-2.2-3.5-2.8-5.7c-0.6-2.2-0.9-4.4-0.9-6.8c0-2.5,0.3-4.8,0.8-6.9
		c0.6-2.2,1.5-4,2.7-5.6c1.2-1.6,2.8-2.8,4.7-3.7c1.9-0.9,4.2-1.4,6.9-1.4c1.1,0,2.2,0.2,3.3,0.5c1.1,0.3,2.2,0.7,3.3,1.3
		c1.1,0.6,2,1.3,2.9,2.1c0.9,0.9,1.6,1.8,2.2,2.9h0.1V108.3z M398.7,125.3c0-2-0.2-3.9-0.7-5.7s-1.2-3.3-2.2-4.5
		c-1-1.3-2.1-2.3-3.6-3c-1.4-0.7-3.1-1.1-4.9-1.1c-1.6,0-3.2,0.3-4.5,0.9c-1.4,0.6-2.6,1.4-3.6,2.6s-1.9,2.5-2.4,4.1
		c-0.6,1.6-0.9,3.5-0.9,5.6c-0.1,2.1,0.1,4.1,0.5,5.9c0.4,1.8,1.1,3.5,2.1,4.8c1,1.4,2.2,2.5,3.6,3.3c1.5,0.8,3.2,1.2,5.3,1.2
		c1.8,0,3.4-0.4,4.8-1.1c1.4-0.8,2.6-1.8,3.6-3.1c1-1.3,1.7-2.8,2.2-4.5C398.4,129,398.7,127.2,398.7,125.3z"/>
	<path class="st0" d="M425.7,142.8c-2.2,0-4.2-0.4-6.1-1.2s-3.5-1.8-4.9-3.3c-1.4-1.5-2.5-3.3-3.3-5.5c-0.8-2.2-1.2-4.8-1.2-7.7
		c0-2.5,0.3-4.8,1-6.9c0.6-2.1,1.6-4,2.9-5.6c1.3-1.6,2.9-2.9,4.9-3.8c1.9-0.9,4.2-1.4,6.8-1.4c2.6,0,4.9,0.5,6.9,1.4
		c1.9,0.9,3.6,2.2,4.9,3.8c1.3,1.6,2.3,3.5,2.9,5.6c0.6,2.2,0.9,4.5,0.9,6.9c0,2.7-0.4,5.1-1.1,7.3c-0.7,2.2-1.8,4-3.1,5.6
		c-1.4,1.6-3,2.8-4.9,3.6C430.2,142.4,428.1,142.8,425.7,142.8z M437.2,125.1c0-2-0.2-3.9-0.6-5.6c-0.4-1.7-1.1-3.2-2-4.5
		c-0.9-1.3-2.1-2.3-3.5-3c-1.4-0.7-3.2-1.1-5.3-1.1c-2,0-3.8,0.4-5.2,1.2c-1.5,0.8-2.6,1.9-3.5,3.2c-0.9,1.3-1.6,2.8-2,4.5
		c-0.4,1.7-0.6,3.5-0.6,5.3c0,2.1,0.2,4,0.7,5.7c0.5,1.8,1.2,3.3,2.2,4.5c1,1.3,2.1,2.2,3.6,2.9c1.4,0.7,3.1,1,4.9,1
		c2,0,3.8-0.4,5.2-1.2c1.4-0.8,2.6-1.9,3.5-3.2c0.9-1.3,1.6-2.9,2-4.5C437,128.7,437.2,126.9,437.2,125.1z"/>
	<path class="st0" d="M444.9,108.3h4.2l10.9,28.8l10.9-28.8h4.2l-13,33.6h-4.4L444.9,108.3z"/>
	<path class="st0" d="M483.3,126c0,1.8,0.2,3.5,0.7,5.2c0.5,1.6,1.2,3,2.1,4.2c0.9,1.2,2.1,2.1,3.5,2.9c1.4,0.7,3.1,1.1,4.9,1.1
		c2.6,0,4.7-0.7,6.6-2c1.8-1.3,3-3.2,3.6-5.7h4.3c-0.5,1.6-1.1,3.1-1.9,4.4c-0.8,1.4-1.8,2.6-2.9,3.6c-1.2,1-2.6,1.8-4.2,2.4
		s-3.5,0.8-5.6,0.8c-2.7,0-5-0.5-6.9-1.4c-1.9-0.9-3.5-2.2-4.8-3.7c-1.3-1.6-2.2-3.4-2.8-5.6c-0.6-2.1-0.9-4.4-0.9-6.9
		c0-2.5,0.4-4.8,1.1-6.9s1.7-4.1,3.1-5.7c1.3-1.6,2.9-2.9,4.8-3.8c1.9-0.9,4.1-1.4,6.5-1.4c4.6,0,8.3,1.6,10.9,4.8
		c2.6,3.2,3.9,7.8,3.9,13.9H483.3z M505.3,122.8c0-1.6-0.2-3.2-0.7-4.6c-0.5-1.4-1.1-2.7-2-3.8c-0.9-1.1-2-1.9-3.3-2.5
		c-1.3-0.6-2.9-0.9-4.6-0.9c-1.7,0-3.3,0.3-4.6,1c-1.3,0.6-2.4,1.5-3.4,2.6c-0.9,1.1-1.7,2.3-2.2,3.8c-0.6,1.4-0.9,2.9-1.1,4.5
		H505.3z"/>
	<path class="st0" d="M521.1,141.9h-3.9v-33.6h3.9v6.3h0.1c1.1-2.7,2.5-4.6,4.2-5.6c1.7-1.1,4-1.6,6.8-1.6v4.2c-2.2,0-4,0.3-5.5,1
		c-1.4,0.7-2.6,1.7-3.4,3c-0.8,1.3-1.4,2.7-1.8,4.4c-0.3,1.7-0.5,3.5-0.5,5.4V141.9z"/>
	<path class="st0" d="M542.5,141.9h-3.9v-33.6h3.9v4.7c1.6-1.6,3.2-3,4.8-4c1.7-1,3.7-1.6,6-1.6c2.1,0,4,0.4,5.8,1.1
		c1.8,0.7,3.3,2,4.5,3.7c0.8,1.2,1.3,2.5,1.5,3.7c0.2,1.3,0.2,2.6,0.2,4v22h-3.9V120c0-3-0.7-5.3-2-6.8c-1.3-1.5-3.6-2.3-6.7-2.3
		c-1.2,0-2.3,0.2-3.3,0.6c-1,0.4-1.9,0.9-2.7,1.5c-0.8,0.6-1.5,1.3-2,2.1c-0.6,0.8-1,1.6-1.3,2.5c-0.4,1.1-0.6,2.1-0.7,3.1
		c-0.1,1-0.1,2.1-0.1,3.2V141.9z"/>
	<path class="st0" d="M578.1,141.9h-3.9v-33.6h3.9v5.1h0.1c1-1.9,2.4-3.4,4.3-4.4c1.9-1,3.9-1.5,6.1-1.5c1.6,0,2.9,0.2,4,0.5
		c1.1,0.3,2,0.8,2.8,1.4c0.8,0.6,1.4,1.3,1.9,2c0.5,0.8,0.9,1.6,1.3,2.5c1.1-2.2,2.6-3.8,4.5-4.9c1.9-1.1,4-1.6,6.5-1.6
		c2.3,0,4.1,0.4,5.5,1.1c1.4,0.8,2.4,1.8,3.1,3c0.7,1.2,1.2,2.7,1.5,4.3c0.2,1.6,0.4,3.2,0.4,4.9v21.2H616v-23.2
		c0-2.4-0.5-4.3-1.5-5.7s-2.9-2.1-5.7-2.1c-1.4,0-2.8,0.3-4.1,0.9c-1.3,0.6-2.5,1.6-3.5,2.9c-0.4,0.6-0.8,1.2-1.1,2
		c-0.3,0.8-0.5,1.5-0.7,2.4c-0.2,0.8-0.3,1.6-0.4,2.5c-0.1,0.8-0.1,1.6-0.1,2.3v18.1h-3.9v-23.2c0-2.4-0.5-4.3-1.5-5.7
		c-1-1.4-2.9-2.1-5.7-2.1c-1.4,0-2.8,0.3-4.1,0.9c-1.3,0.6-2.5,1.6-3.5,2.9c-0.4,0.6-0.8,1.2-1.1,2c-0.3,0.8-0.5,1.5-0.7,2.4
		c-0.2,0.8-0.3,1.6-0.4,2.5c-0.1,0.8-0.1,1.6-0.1,2.3V141.9z"/>
	<path class="st0" d="M631.2,126c0,1.8,0.2,3.5,0.7,5.2c0.5,1.6,1.2,3,2.1,4.2c0.9,1.2,2.1,2.1,3.5,2.9c1.4,0.7,3.1,1.1,4.9,1.1
		c2.6,0,4.7-0.7,6.6-2c1.8-1.3,3-3.2,3.6-5.7h4.3c-0.5,1.6-1.1,3.1-1.9,4.4c-0.8,1.4-1.8,2.6-2.9,3.6c-1.2,1-2.6,1.8-4.2,2.4
		c-1.6,0.6-3.5,0.8-5.6,0.8c-2.7,0-5-0.5-6.9-1.4c-1.9-0.9-3.5-2.2-4.8-3.7c-1.3-1.6-2.2-3.4-2.8-5.6c-0.6-2.1-0.9-4.4-0.9-6.9
		c0-2.5,0.4-4.8,1.1-6.9s1.7-4.1,3.1-5.7c1.3-1.6,2.9-2.9,4.8-3.8c1.9-0.9,4.1-1.4,6.5-1.4c4.6,0,8.3,1.6,10.9,4.8
		c2.6,3.2,3.9,7.8,3.9,13.9H631.2z M653.2,122.8c0-1.6-0.2-3.2-0.7-4.6c-0.5-1.4-1.1-2.7-2-3.8c-0.9-1.1-2-1.9-3.3-2.5
		c-1.3-0.6-2.9-0.9-4.6-0.9c-1.7,0-3.3,0.3-4.6,1c-1.3,0.6-2.4,1.5-3.4,2.6c-0.9,1.1-1.7,2.3-2.2,3.8c-0.6,1.4-0.9,2.9-1.1,4.5
		H653.2z"/>
	<path class="st0" d="M668.8,141.9h-3.9v-33.6h3.9v4.7c1.6-1.6,3.2-3,4.8-4c1.7-1,3.7-1.6,6-1.6c2.1,0,4,0.4,5.8,1.1
		c1.8,0.7,3.3,2,4.5,3.7c0.8,1.2,1.3,2.5,1.5,3.7c0.2,1.3,0.2,2.6,0.2,4v22h-3.9V120c0-3-0.7-5.3-2-6.8c-1.3-1.5-3.6-2.3-6.7-2.3
		c-1.2,0-2.3,0.2-3.3,0.6c-1,0.4-1.9,0.9-2.7,1.5c-0.8,0.6-1.5,1.3-2,2.1c-0.6,0.8-1,1.6-1.3,2.5c-0.4,1.1-0.6,2.1-0.7,3.1
		c-0.1,1-0.1,2.1-0.1,3.2V141.9z"/>
	<path class="st0" d="M712.8,142.1c-0.5,0.1-1.1,0.2-1.9,0.5c-0.8,0.2-1.6,0.3-2.6,0.3c-1.9,0-3.4-0.5-4.4-1.5c-1-1-1.5-2.7-1.5-5.2
		v-24.6h-4.7v-3.2h4.7V99h3.9v9.3h6.3v3.2h-6.3v23c0,0.8,0,1.5,0.1,2.1c0,0.6,0.2,1.1,0.4,1.5c0.2,0.4,0.6,0.7,1,0.8
		c0.5,0.2,1.1,0.3,1.9,0.3c0.5,0,1,0,1.6-0.1c0.5-0.1,1.1-0.2,1.6-0.3V142.1z"/>
	<path class="st0" d="M739.4,131.4c0.6,2.9,1.7,4.9,3.3,6.1c1.6,1.2,3.8,1.8,6.8,1.8c1.4,0,2.7-0.2,3.7-0.5c1-0.3,1.9-0.8,2.6-1.4
		c0.7-0.6,1.2-1.2,1.5-2c0.3-0.7,0.5-1.5,0.5-2.3c0-1.6-0.5-2.9-1.6-3.7c-1.1-0.8-2.4-1.4-4-1.9c-1.6-0.5-3.3-0.8-5.2-1.2
		c-1.9-0.3-3.6-0.8-5.2-1.5c-1.6-0.6-2.9-1.6-4-2.8c-1.1-1.2-1.6-2.9-1.6-5.1c0-2.8,1-5.1,3.1-6.9c2.1-1.8,5-2.7,8.7-2.7
		c3.6,0,6.6,0.8,8.9,2.4c2.3,1.6,3.6,4.3,4.1,8.1h-4c-0.3-2.6-1.3-4.4-3-5.5c-1.6-1.1-3.7-1.6-6.1-1.6c-2.5,0-4.4,0.5-5.6,1.6
		c-1.3,1.1-1.9,2.5-1.9,4.2c0,1.5,0.5,2.7,1.6,3.5c1.1,0.8,2.4,1.5,4,1.9c1.6,0.5,3.3,0.9,5.2,1.3c1.9,0.4,3.6,0.9,5.2,1.7
		c1.6,0.7,2.9,1.7,4,2.9c1.1,1.2,1.6,2.9,1.6,5.1c0,1.6-0.3,3-1,4.3c-0.7,1.2-1.6,2.3-2.9,3.1c-1.2,0.8-2.7,1.4-4.3,1.9
		c-1.7,0.4-3.5,0.6-5.5,0.6c-2,0-3.8-0.3-5.3-0.9c-1.5-0.6-2.8-1.4-3.9-2.4c-1.1-1-1.9-2.2-2.5-3.6c-0.6-1.4-1-2.9-1-4.5H739.4z"/>
	<path class="st0" d="M769.9,101v-5.8h4.3v5.8H769.9z M770.1,141.9v-33.6h3.9v33.6H770.1z"/>
	<path class="st0" d="M795.8,142.1c-0.5,0.1-1.1,0.2-1.9,0.5c-0.8,0.2-1.6,0.3-2.6,0.3c-1.9,0-3.4-0.5-4.4-1.5c-1-1-1.5-2.7-1.5-5.2
		v-24.6h-4.7v-3.2h4.7V99h3.9v9.3h6.3v3.2h-6.3v23c0,0.8,0,1.5,0.1,2.1c0,0.6,0.2,1.1,0.4,1.5c0.2,0.4,0.6,0.7,1,0.8
		c0.5,0.2,1.1,0.3,1.9,0.3c0.5,0,1,0,1.6-0.1c0.5-0.1,1.1-0.2,1.6-0.3V142.1z"/>
	<path class="st0" d="M804.4,126c0,1.8,0.2,3.5,0.7,5.2c0.5,1.6,1.2,3,2.1,4.2c0.9,1.2,2.1,2.1,3.5,2.9c1.4,0.7,3.1,1.1,4.9,1.1
		c2.6,0,4.7-0.7,6.6-2c1.8-1.3,3-3.2,3.6-5.7h4.3c-0.5,1.6-1.1,3.1-1.9,4.4c-0.8,1.4-1.8,2.6-2.9,3.6c-1.2,1-2.6,1.8-4.2,2.4
		s-3.5,0.8-5.6,0.8c-2.7,0-5-0.5-6.9-1.4c-1.9-0.9-3.5-2.2-4.8-3.7c-1.3-1.6-2.2-3.4-2.8-5.6c-0.6-2.1-0.9-4.4-0.9-6.9
		c0-2.5,0.4-4.8,1.1-6.9c0.7-2.2,1.7-4.1,3.1-5.7c1.3-1.6,2.9-2.9,4.8-3.8c1.9-0.9,4.1-1.4,6.5-1.4c4.6,0,8.3,1.6,10.9,4.8
		c2.6,3.2,3.9,7.8,3.9,13.9H804.4z M826.4,122.8c0-1.6-0.2-3.2-0.7-4.6c-0.5-1.4-1.1-2.7-2-3.8c-0.9-1.1-2-1.9-3.3-2.5
		c-1.3-0.6-2.9-0.9-4.6-0.9c-1.7,0-3.3,0.3-4.6,1c-1.3,0.6-2.4,1.5-3.4,2.6c-0.9,1.1-1.7,2.3-2.2,3.8c-0.6,1.4-0.9,2.9-1.1,4.5
		H826.4z"/>
</g>
</svg>
